<?xml version="1.0" encoding="UTF-8"?>
<svg version="1.1" xmlns="http://www.w3.org/2000/svg" width="1080" height="1080">
<path d="M0 0 C0.76836182 -0.01221588 1.53672363 -0.02443176 2.32836914 -0.03701782 C18.79733201 -0.25782803 32.74637287 3.15872219 45.1875 14.6875 C55.36677458 25.62350722 60.83783842 39.14996539 60.5859375 54.0625 C59.62948682 69.36571095 52.66383014 81.75884537 41.6875 92.1875 C30.9081488 101.1632196 19.20969527 103.61892069 5.625 103.875 C-23.25460007 104.79897844 -49.52523738 111.56427062 -70.5625 132.4375 C-71.449375 133.283125 -72.33625 134.12875 -73.25 135 C-74.3946875 136.2065625 -74.3946875 136.2065625 -75.5625 137.4375 C-76.08070313 137.97246094 -76.59890625 138.50742187 -77.1328125 139.05859375 C-95.85512216 159.25014296 -101.6806565 184.84064484 -101.80078125 211.46875 C-101.80485678 212.23474014 -101.8089323 213.00073029 -101.81313133 213.78993225 C-101.83388395 217.83863037 -101.84823622 221.8872956 -101.85766602 225.93603516 C-101.86875496 230.09866136 -101.903214 234.26075672 -101.94283772 238.42319489 C-101.96905345 241.64382884 -101.97736182 244.86433649 -101.98094749 248.08506775 C-101.98579448 249.61917234 -101.99735424 251.15327201 -102.01598549 252.68727112 C-102.16065422 264.1478007 -102.16065422 264.1478007 -97.5625 274.4375 C-95.86940186 276.29262814 -95.86940186 276.29262814 -94 277.375 C-93.42121094 277.75527344 -92.84242188 278.13554688 -92.24609375 278.52734375 C-87.29925076 281.20162314 -82.02210529 281.07165976 -76.5625 280.4375 C-71.58802871 278.75927444 -67.79752256 276.42356799 -65.0625 271.875 C-62.80688045 266.70587186 -62.41296839 262.44211348 -62.40478516 256.83007812 C-62.39970444 256.06848389 -62.39462372 255.30688965 -62.38938904 254.5222168 C-62.37870211 252.87005252 -62.37007537 251.21787391 -62.36326981 249.56568909 C-62.35143655 246.94081201 -62.33196874 244.3160962 -62.31015015 241.69128418 C-62.24870947 234.22848987 -62.1946812 226.76571032 -62.16113281 219.30273438 C-62.14004244 214.73328068 -62.10461971 210.1641189 -62.06037521 205.59483337 C-62.04632124 203.86314865 -62.03751705 202.13141226 -62.03432083 200.39967346 C-62.00849734 187.73934534 -61.22396855 176.04158955 -54.875 164.75 C-54.52397217 164.11626465 -54.17294434 163.4825293 -53.8112793 162.82958984 C-45.810958 148.8312623 -32.86484297 139.34579869 -17.5625 134.4375 C-1.24723596 130.07144343 15.74889422 132.55152858 30.55859375 140.55078125 C44.94078083 149.97628513 55.19205209 163.93659468 59.05102539 180.76049805 C60.72129645 188.87675703 60.89275186 196.78150002 60.87109375 205.01953125 C60.87567037 206.56980107 60.88098025 208.12006889 60.88697815 209.67033386 C60.89583193 212.89155417 60.89357153 216.11252546 60.88354492 219.33374023 C60.87200094 223.44012732 60.89238818 227.5456613 60.92146206 231.65193653 C60.93988122 234.84261929 60.93952139 238.03309902 60.93382454 241.22382164 C60.93367236 242.73753758 60.93962983 244.25126819 60.95211601 245.76493263 C61.01739528 254.96338851 61.01549137 263.50185305 54.4375 270.59375 C53.4475 271.25890625 53.4475 271.25890625 52.4375 271.9375 C51.7775 272.4015625 51.1175 272.865625 50.4375 273.34375 C46.2285677 275.64550985 42.18475965 275.83310497 37.4375 275.4375 C31.26982634 273.45716378 27.02188408 269.78306934 23.4375 264.4375 C22.28407907 260.9772372 22.30585612 258.28150307 22.2956543 254.63037109 C22.29217987 253.94213257 22.28870544 253.25389404 22.28512573 252.5447998 C22.27777685 251.05030499 22.27242684 249.55579931 22.26883507 248.06129074 C22.26165336 245.68934108 22.24597192 243.31759634 22.22749329 240.94570923 C22.17512013 234.2016286 22.12710761 227.4576583 22.11157227 220.71337891 C22.10144225 216.5859082 22.07198801 212.45895112 22.03025246 208.33168411 C22.01800456 206.76498948 22.01280977 205.19822208 22.01505089 203.63148117 C22.02577075 193.68673744 21.70105143 185.46630426 15 177.5625 C9.4385513 172.95056693 4.9944355 171.0283221 -2.28125 171.1640625 C-9.44344914 172.02254527 -14.93197795 174.95274709 -19.40625 180.55859375 C-22.32720747 185.30514964 -22.85378512 189.54866237 -22.83374023 195.03491211 C-22.83896698 195.78368622 -22.84419373 196.53246033 -22.84957886 197.30392456 C-22.85979453 198.92549999 -22.86559501 200.54710799 -22.86746025 202.16871452 C-22.8711412 204.74809181 -22.8879197 207.32709045 -22.90821838 209.90638733 C-22.96343127 217.23870741 -22.99412783 224.57108485 -23.01879883 231.90356445 C-23.03482219 236.39635468 -23.0652025 240.88888071 -23.10356331 245.38153267 C-23.11509506 247.08086874 -23.12114261 248.78025241 -23.12124443 250.47962761 C-23.12284881 270.14805113 -26.27363412 287.60084361 -40.22802734 302.37353516 C-54.30867552 316.44460792 -70.60001369 319.55335953 -89.5625 320.4375 C-74.79539856 345.08579771 -53.38926938 362.92874467 -25.125 370.25 C-17.16205027 372.11897113 -9.52125848 372.59450887 -1.375 372.5625 C0.07229492 372.56830078 0.07229492 372.56830078 1.54882812 372.57421875 C6.66410467 372.56740293 11.71283293 372.37453004 16.80981445 371.92919922 C17.86981155 371.83758514 18.92980865 371.74597107 20.02192688 371.65158081 C20.81906601 371.58093414 21.61620514 371.51028748 22.4375 371.4375 C22.42861755 370.67852417 22.41973511 369.91954834 22.4105835 369.13757324 C22.33018505 361.95862288 22.26940831 354.77989312 22.23025131 347.60060883 C22.2094429 343.91030045 22.18125081 340.22036642 22.13574219 336.53027344 C22.09204057 332.96407939 22.06831224 329.39824369 22.05799103 325.83180237 C22.04708506 323.81999888 22.01589809 321.80833804 21.98431396 319.79675293 C21.98230435 311.54420701 22.53577528 305.57873654 28.41015625 299.34375 C34.39248907 295.31825502 39.29172302 294.34671161 46.4375 295.4375 C51.80977172 297.1606815 55.4155777 300.74987957 58.4375 305.4375 C60.58053985 310.60072859 60.77630024 315.27443695 60.8515625 320.7734375 C60.88061172 322.09246567 60.88061172 322.09246567 60.9102478 323.43814087 C60.96972815 326.22949718 61.0163021 329.02089543 61.0625 331.8125 C61.10070885 333.71225694 61.13976226 335.6119971 61.1796875 337.51171875 C61.27540357 342.1535085 61.3595504 346.79537929 61.4375 351.4375 C84.27505848 331.54514358 97.92465737 308.28185569 100.26452637 277.58648682 C100.8832629 266.32238164 100.73068784 255.01105527 100.69824219 243.73388672 C100.68684834 239.74024136 100.69361582 235.74686252 100.70512199 231.75322628 C100.79659386 194.40763918 97.80181716 163.31633073 71.48828125 134.73046875 C66.49667951 129.14938261 63.02122418 124.40578223 63.1640625 116.62109375 C63.99151314 110.01330938 67.75405265 105.65314627 72.75390625 101.56640625 C75.82975446 99.50394655 78.64888582 99.25387998 82.25 99.1875 C83.08144531 99.16171875 83.91289063 99.1359375 84.76953125 99.109375 C91.17362001 99.89699353 95.29997464 103.77913572 99.625 108.1875 C100.18598389 108.75605713 100.74696777 109.32461426 101.32495117 109.91040039 C130.46038994 140.17260137 139.58418895 178.60356299 139.60546875 219.44140625 C139.60869881 220.9366814 139.61206403 222.43195627 139.61555481 223.92723083 C139.62148693 227.04076873 139.62340097 230.15427913 139.62280273 233.26782227 C139.62272169 236.4101337 139.62963884 239.55229866 139.64331055 242.69458008 C139.85504667 292.17916801 133.24103385 334.54901058 97.4375 371.4375 C71.74608078 397.21100043 36.38821498 411.59443558 0.125 411.6875 C-38.62506645 411.67389967 -73.25594892 396.7189866 -100.8125 369.625 C-118.1460871 352.14104429 -129.90068878 330.59060338 -136.3125 306.875 C-136.61075684 305.77901489 -136.61075684 305.77901489 -136.91503906 304.66088867 C-140.4524179 290.822335 -140.87522859 277.23678133 -140.86328125 263.05078125 C-140.86718085 261.09848441 -140.87151805 259.1461884 -140.87626648 257.19389343 C-140.88368334 253.12020101 -140.88347125 249.04659531 -140.87817383 244.97290039 C-140.87239486 239.80721181 -140.88929464 234.64188362 -140.9125185 229.47625446 C-140.92740576 225.44795226 -140.92810724 221.41973378 -140.92500877 217.39140892 C-140.92551481 215.48962887 -140.93061393 213.5878432 -140.94082069 211.68609047 C-141.13242338 170.99291175 -127.62446002 135.11500725 -99.1875 105.6875 C-89.42883221 96.24765233 -69.50993086 77.4375 -55.5625 77.4375 C-55.91183594 76.62925781 -56.26117188 75.82101562 -56.62109375 74.98828125 C-57.07613281 73.91964844 -57.53117188 72.85101563 -58 71.75 C-58.45246094 70.69425781 -58.90492188 69.63851562 -59.37109375 68.55078125 C-61.19422276 63.78673594 -61.68625898 59.70949541 -61.625 54.625 C-61.61597656 53.64917969 -61.60695313 52.67335938 -61.59765625 51.66796875 C-61.58025391 50.56388672 -61.58025391 50.56388672 -61.5625 49.4375 C-78.91041076 56.72908643 -95.25013575 65.06045545 -109.5625 77.4375 C-110.68092504 78.36363203 -111.80082866 79.28798018 -112.921875 80.2109375 C-139.20425699 102.02342987 -157.28686644 131.32588817 -166.9375 164 C-167.16405273 164.75249023 -167.39060547 165.50498047 -167.62402344 166.28027344 C-172.03586577 182.23588369 -173.03161653 198.55253624 -172.99609375 215.015625 C-173.00067764 216.92494894 -173.00598956 218.83427126 -173.01197815 220.74359131 C-173.02082345 224.71340709 -173.01858658 228.6830208 -173.00854492 232.65283203 C-172.99936094 236.66899463 -173.0062743 240.68457558 -173.02905273 244.70068359 C-173.42883009 276.30916517 -173.42883009 276.30916517 -168.5625 307.4375 C-168.39765106 308.11552673 -168.23280212 308.79355347 -168.06295776 309.49212646 C-167.08313623 313.40080511 -165.89514636 317.19871612 -164.5625 321 C-164.18150146 322.11076904 -163.80050293 323.22153809 -163.40795898 324.3659668 C-157.35449703 341.32893805 -148.84926448 357.37494332 -137.5625 371.4375 C-137.12583008 371.9855127 -136.68916016 372.53352539 -136.23925781 373.09814453 C-128.6362709 382.55398319 -120.39791143 391.4023694 -111.125 399.25 C-105.93406012 403.68570068 -102.84213314 408.13782898 -102.25 415.125 C-102.34011425 420.57190601 -104.33785926 424.90512798 -107.91796875 428.98046875 C-111.89489319 432.61620933 -116.14745378 434.38350717 -121.5390625 434.46875 C-129.46704946 433.85655024 -135.10097281 429.34436215 -140.6875 424 C-141.51991211 423.21338989 -141.51991211 423.21338989 -142.36914062 422.41088867 C-143.53004748 421.30838708 -144.68724906 420.20197156 -145.84082031 419.09179688 C-146.95952233 418.01687843 -148.08360375 416.94752072 -149.21386719 415.88476562 C-158.44146379 407.20715823 -166.2162815 397.74811321 -173.5625 387.4375 C-173.9745166 386.8595166 -174.3865332 386.2815332 -174.81103516 385.68603516 C-189.2367345 365.10160094 -199.61929316 341.71915783 -205.875 317.4375 C-206.10558105 316.55006104 -206.33616211 315.66262207 -206.57373047 314.74829102 C-210.69370287 297.70988935 -212.03267318 280.64944566 -211.99609375 263.17578125 C-212.00067841 261.20541712 -212.00599054 259.23505458 -212.01197815 257.26469421 C-212.02082205 253.1680139 -212.01858865 249.07152941 -212.00854492 244.97485352 C-211.99936564 240.83369721 -212.00626396 236.69310525 -212.02905273 232.55200195 C-212.3920549 166.26059379 -196.08378599 110.10695504 -149.5625 61.4375 C-148.92699219 60.76074219 -148.29148437 60.08398438 -147.63671875 59.38671875 C-142.69054299 54.25166755 -137.17056291 49.82580922 -131.5625 45.4375 C-131.0159375 45.00920898 -130.469375 44.58091797 -129.90625 44.13964844 C-92.33640192 14.95897666 -47.31487513 0.407783 0 0 Z M-22.4375 44.625 C-24.04297982 48.63869956 -24.23917379 52.17445511 -23.5625 56.4375 C-21.30492143 60.95265714 -19.04809844 63.21874426 -14.5625 65.4375 C-9.93472664 66.05203622 -5.28934853 65.90111086 -0.625 65.875 C0.63763672 65.89498047 1.90027344 65.91496094 3.20117188 65.93554688 C12.17807507 66.04434593 12.17807507 66.04434593 19.4375 61.4375 C22.70115869 55.96297575 22.79428968 52.44614001 21.4375 46.4375 C19.55968122 42.21240774 17.54136271 40.48207162 13.4375 38.4375 C8.80972664 37.82296378 4.16434853 37.97388914 -0.5 38 C-1.76263672 37.98001953 -3.02527344 37.96003906 -4.32617188 37.93945312 C-12.51762534 37.94377579 -16.98444764 38.26310558 -22.4375 44.625 Z " fill="#FDD105" transform="translate(537.5625,301.5625)"/>
<path d="M0 0 C5.7858168 3.27024428 10.9972642 7.43524751 16.1875 11.5625 C17.18652344 12.35398437 18.18554688 13.14546875 19.21484375 13.9609375 C39.90249163 30.73817557 56.89384056 50.51656893 70.1875 73.5625 C70.6009668 74.27567383 71.01443359 74.98884766 71.44042969 75.72363281 C90.49082797 109.03620475 98.3002424 145.80602776 98.390625 183.8828125 C98.39486607 185.10843714 98.39486607 185.10843714 98.39919281 186.35882187 C98.41409772 190.69413308 98.42337862 195.02941185 98.42773438 199.36474609 C98.4320936 202.8882904 98.44589807 206.41158634 98.46875 209.93505859 C98.73778989 252.28286678 94.92304286 292.70819209 74.1875 330.5625 C73.46984024 331.91004345 72.75239643 333.25770193 72.03515625 334.60546875 C45.36932906 383.99711592 -0.80366081 420.0341099 -54.25512695 436.25341797 C-55.16093506 436.52041504 -56.06674316 436.78741211 -57 437.0625 C-57.84844482 437.31789551 -58.69688965 437.57329102 -59.57104492 437.83642578 C-66.08983741 439.66876982 -72.38284619 440.65998922 -78.9375 438.5625 C-83.65952382 435.27761387 -87.97041886 431.08874342 -89.8125 425.5625 C-90.54738402 418.67145641 -89.97546991 414.14964383 -85.8125 408.5625 C-81.54417342 404.5233869 -78.25436734 402.72963972 -72.5 401.125 C-71.07219609 400.70687991 -69.64513353 400.28622148 -68.21875 399.86328125 C-67.48914063 399.65010254 -66.75953125 399.43692383 -66.0078125 399.21728516 C-40.95100852 391.7437144 -18.51891291 379.82130112 1.1875 362.5625 C2.05890625 361.81226563 2.9303125 361.06203125 3.828125 360.2890625 C9.0592909 355.7000457 13.80970467 350.96926431 18.1875 345.5625 C18.93515625 344.65242188 19.6828125 343.74234375 20.453125 342.8046875 C40.95174821 317.08471687 53.91199894 287.19920129 58.1875 254.5625 C58.27379166 253.92323578 58.36008331 253.28397156 58.44898987 252.62533569 C59.44511267 244.2304203 59.35160457 235.81453573 59.35546875 227.375 C59.35869132 225.70605441 59.3620561 224.03710909 59.36555481 222.36816406 C59.37151695 218.87841133 59.37339788 215.38868324 59.37280273 211.89892578 C59.37270164 207.47968463 59.38631213 203.06060605 59.40357494 198.6414032 C59.41483041 195.19390168 59.41671779 191.74643767 59.41619301 188.29891968 C59.41735446 186.67263228 59.42166967 185.0463433 59.42952538 183.42007446 C59.49795525 167.78295957 58.33461691 152.41605303 54.5625 137.1875 C54.30452637 136.1351416 54.04655273 135.0827832 53.78076172 133.99853516 C46.68151108 106.26748002 32.421192 81.63277749 13.1875 60.5625 C12.7332666 60.06298828 12.2790332 59.56347656 11.81103516 59.04882812 C2.93317611 49.42306344 -7.3169591 41.52189005 -18.01733398 34.01586914 C-23.72962126 29.93770196 -26.28447665 26.52817887 -27.8125 19.5625 C-28.30293627 14.35699219 -27.16420198 10.56940623 -24.25 6.25 C-18.04027728 -1.1573121 -9.06903209 -4.07449268 0 0 Z " fill="#FDD105" transform="translate(649.8125,334.4375)"/>
<path d="M0 0 C5.25116028 3.01435772 8.51890843 7.93838774 10.4453125 13.609375 C11.44212146 18.91155032 10.36097198 23.87786217 7.75 28.5625 C2.92900332 34.03948543 -1.7629877 37.21951518 -9.0625 37.9375 C-15.37946135 37.73526207 -20.2706431 34.908114 -24.625 30.4375 C-27.90762267 26.22854819 -29.14460088 21.87299415 -29.25 16.5625 C-28.32741324 11.1218248 -26.29363875 6.38756368 -22.25 2.5625 C-15.44920904 -2.23434559 -7.74924912 -3.20913561 0 0 Z " fill="#FDD209" transform="translate(532.25,741.4375)"/>
<path d="M0 0 C4.82588545 4.05813095 8.5364424 8.00200048 9.75 14.3125 C9.83339037 20.69186308 9.01909838 25.35111539 4.75 30.3125 C-0.92433643 35.77887646 -5.44144549 36.73099267 -13.16796875 36.65625 C-17.80227946 36.1393687 -20.85482497 34.45405954 -24.25 31.3125 C-29.2194423 24.94142013 -30.21281027 19.23134402 -29.25 11.3125 C-27.21595845 6.21473612 -23.92621533 2.20729997 -19.25 -0.6875 C-12.51948684 -3.40559185 -6.42149997 -3.33424037 0 0 Z " fill="#FDD209" transform="translate(479.25,730.6875)"/>
<path d="M0 0 C2.125 0.375 2.125 0.375 4 1 C3.0479279 2.00596297 2.08812654 3.00461563 1.125 4 C0.59132813 4.556875 0.05765625 5.11375 -0.4921875 5.6875 C-2 7 -2 7 -4 7 C-2.92598892 4.08482708 -2.22189824 2.22189824 0 0 Z " fill="#FDD529" transform="translate(510,744)"/>
</svg>
